inDegrees=yes
name=ik_MT_012005D6_009-001_orientations
DataType=double
version=3
OpenSimVersion=4.2-2021-01-13-642235af4
endheader
time	pelvis_tilt	pelvis_list	pelvis_rotation	pelvis_tx	pelvis_ty	pelvis_tz	hip_flexion_r	hip_adduction_r	hip_rotation_r	knee_angle_r	knee_angle_r_beta	ankle_angle_r	subtalar_angle_r	mtp_angle_r	hip_flexion_l	hip_adduction_l	hip_rotation_l	knee_angle_l	knee_angle_l_beta	ankle_angle_l	subtalar_angle_l	mtp_angle_l	lumbar_extension	lumbar_bending	lumbar_rotation	arm_flex_r	arm_add_r	arm_rot_r	elbow_flex_r	pro_sup_r	wrist_flex_r	wrist_dev_r	arm_flex_l	arm_add_l	arm_rot_l	elbow_flex_l	pro_sup_l	wrist_flex_l	wrist_dev_l
7.25999999999989	62.29364518817221	88.98986116730175	80.76048215557937	0	0.9399999999999999	0	-9.505713500409147	-2.976465676329209	4.968781279206042	20.84498069744546	0.3638135456850872	4.146236520962471	0	0	24.71017373572532	-6.03423138456549	-7.648012006731928	1.379897688052905	0.02408375799718082	10.32259430169499	0	0	-6.457852601693407	-4.247800801929825	12.11425184918823	0	-2.537202262851199	0	26.88594012949862	24.32976355203506	0	0	0	-2.537202262851199	0	26.88594012949862	24.32976355203506	0	0
7.269999999999889	62.10037160956043	89.07707825568674	80.72295675586699	0	0.9399999999999999	0	-9.759936338004687	-3.322556174102551	4.990438793570497	21.45205969387079	0.3744090729924121	2.884427094905324	0	0	24.16102365415413	-5.86894143101144	-7.29301664733637	1.131717526781254	0.01975219704485999	8.443156382178891	0	0	-6.262309556643267	-4.265821130627357	11.95839597940014	0	-2.563546573556874	0	27.11171880466729	24.50977515156771	0	0	0	-2.563546573556874	0	27.11171880466729	24.50977515156771	0	0
7.279999999999889	61.96629876859942	89.21872562635166	80.72871086211607	0	0.9399999999999999	0	-9.981162442312568	-3.672344630012974	4.853279909490014	22.20057703111125	0.387473165035519	1.462004686454637	0	0	23.52117136661911	-5.588620852926965	-6.951592887866554	0.8695855285821998	0.01517713060145465	6.816576931491734	0	0	-6.176337477784174	-4.269166154297347	11.74307017564183	0	-2.58801862507529	0	27.32128086209791	24.67647783078957	0	0	0	-2.58801862507529	0	27.32128086209791	24.67647783078957	0	0
7.289999999999889	61.87126856552997	89.35052355108574	80.83737321189058	0	0.9399999999999999	0	-10.11984144094939	-3.97209849359401	4.520021670577712	23.0788951305518	0.4028027077506155	-0.1644544415086184	0	0	22.78705522130776	-5.247814083055528	-6.513298485056279	0.9859233373737906	0.01720760840942351	5.839853837938998	0	0	-6.107069451666123	-4.24302919375195	11.44536557223941	0	-2.619999096334085	0	27.59270680193186	24.89177092153938	0	0	0	-2.619999096334085	0	27.59270680193186	24.89177092153938	0	0
7.299999999999889	61.77971241314611	89.40674755715855	81.01212075583442	0	0.9399999999999999	0	-10.09968183202717	-4.277678387949726	4.00468992361605	24.03677948836948	0.4195209436478854	-2.147822505178135	0	0	22.20336827713763	-4.807641239386099	-6.013632956050208	1.518345207059464	0.0265001230450627	5.272318229287081	0	0	-5.985360385310746	-4.195209832395042	11.10574579196605	0	-2.661010603679525	0	27.93403079185487	25.16055044199521	0	0	0	-2.661010603679525	0	27.93403079185487	25.16055044199521	0	0
7.309999999999889	61.69324409103757	89.43915533424082	81.19528193319503	0	0.9399999999999999	0	-9.950635661033294	-4.665455794007522	3.342910434192117	25.09914759472553	0.4380627649719758	-4.501562525855373	0	0	21.85184042573809	-4.415048965816086	-5.609039077349149	2.065875685848455	0.03605633265495158	4.453900720618344	0	0	-5.856886949875991	-4.149312635757964	10.81118297817812	0	-2.705370487867992	0	28.29506197233544	25.44194852736563	0	0	0	-2.705370487867992	0	28.29506197233544	25.44194852736563	0	0
7.319999999999888	61.61164910603689	89.4636166873339	81.39145974234711	0	0.9399999999999999	0	-9.624429687590791	-5.080743295118478	2.512426877432154	26.31084659353843	0.4592109020443799	-7.239780134561024	0	0	21.6810506827122	-4.115468712329079	-5.442712504417581	2.541321830023695	0.04435443328672115	3.30003545798468	0	0	-5.764011416088558	-4.119742075355258	10.52319224321015	0	-2.754235576233184	0	28.68509099698275	25.7427809928891	0	0	0	-2.754235576233184	0	28.68509099698275	25.7427809928891	0	0
